<?xml version="1.0" encoding="utf-8"?>
<svg viewBox="0 0 500 500" xmlns="http://www.w3.org/2000/svg">
  <path fill="#FFD403" d="M 472.929 491.48 L 24.844 491.48 C 13.246 491.48 3.844 482.078 3.844 470.48 L 3.844 29.396 C 3.844 17.798 13.246 8.396 24.844 8.396 L 472.929 8.396 C 484.527 8.396 493.929 17.798 493.929 29.396 L 493.929 470.48 C 493.929 482.078 484.527 491.48 472.929 491.48 Z"/>
  <path d="M 201.001 207.634 C 208.257 200.228 217 194.635 227.221 190.857 C 237.443 187.08 248.848 185.191 261.441 185.191 C 292.55 185.191 317.472 194.673 336.214 213.633 C 354.952 232.598 364.323 257.853 364.323 289.406 C 364.323 322.886 354.101 349.922 333.658 370.511 C 313.215 391.104 286.252 401.398 252.775 401.398 C 214.111 401.398 184.741 388.066 164.67 361.401 C 144.595 334.736 134.561 295.704 134.561 244.298 C 134.561 189.045 145.3 146.788 166.781 117.529 C 188.258 88.274 219.221 73.643 259.663 73.643 C 287.807 73.643 310.51 80.976 327.77 95.642 C 345.025 110.308 354.469 130.16 356.101 155.193 L 291.661 155.193 C 290.178 144.972 286.179 137.271 279.662 132.084 C 273.141 126.9 264.031 124.307 252.33 124.307 C 236.332 124.307 224.034 131.233 215.444 145.083 C 206.851 158.936 202.035 179.785 201.001 207.634 Z M 201.889 290.739 C 201.889 308.96 206.445 323.404 215.555 334.069 C 224.666 344.735 237.071 350.068 252.775 350.068 C 267.441 350.068 278.919 344.885 287.217 334.514 C 295.511 324.146 299.66 309.703 299.66 291.184 C 299.66 274.15 295.362 260.891 286.773 251.409 C 278.179 241.93 266.107 237.187 250.553 237.187 C 235.293 237.187 223.367 241.93 214.778 251.409 C 206.184 260.891 201.889 274.001 201.889 290.739 Z"/>
</svg>