<?xml version="1.0" encoding="utf-8"?>
<svg viewBox="0 0 500 500" xmlns="http://www.w3.org/2000/svg">
  <path fill="#CC00FF" d="M 474.599 489.81 L 26.514 489.81 C 14.916 489.81 5.514 480.408 5.514 468.81 L 5.514 27.726 C 5.514 16.128 14.916 6.726 26.514 6.726 L 474.599 6.726 C 486.197 6.726 495.599 16.128 495.599 27.726 L 495.599 468.81 C 495.599 480.408 486.197 489.81 474.599 489.81 Z"/>
  <path d="M 132.901 304.626 L 195.118 304.626 C 196.153 318.552 200.82 329.329 209.117 336.957 C 217.412 344.588 228.522 348.401 242.448 348.401 C 259.632 348.401 272.78 343.366 281.89 333.291 C 291.001 323.218 295.556 308.775 295.556 289.96 C 295.556 272.333 290.889 258.445 281.557 248.296 C 272.224 238.151 259.336 233.075 242.893 233.075 C 233.706 233.075 225.633 234.929 218.673 238.63 C 211.708 242.335 205.784 247.817 200.896 255.074 L 143.567 251.741 L 164.232 81.086 L 347.108 81.086 L 347.108 134.86 L 209.117 134.86 L 200.896 198.633 C 207.857 193.154 215.857 189.044 224.894 186.301 C 233.928 183.561 244.004 182.19 255.114 182.19 C 286.814 182.19 312.405 191.821 331.886 211.077 C 351.364 230.336 361.107 255.594 361.107 286.849 C 361.107 321.069 350.364 348.366 328.887 368.733 C 307.406 389.103 278.592 399.286 242.448 399.286 C 209.562 399.286 183.376 390.877 163.899 374.066 C 144.417 357.254 134.085 334.107 132.901 304.626 Z"/>
</svg>