<?xml version="1.0" encoding="utf-8"?>
<svg viewBox="0 0 500 500" xmlns="http://www.w3.org/2000/svg">
  <path fill="#FC7300" d="M 474.6 490.923 L 26.514 490.923 C 14.916 490.923 5.514 481.521 5.514 469.923 L 5.514 28.839 C 5.514 17.241 14.916 7.839 26.514 7.839 L 474.6 7.839 C 486.198 7.839 495.6 17.241 495.6 28.839 L 495.6 469.923 C 495.6 481.521 486.198 490.923 474.6 490.923 Z"/>
  <path d="M 134.234 294.407 L 195.34 294.407 C 195.486 312.184 199.785 325.555 208.229 334.516 C 216.672 343.481 229.189 347.96 245.781 347.96 C 261.78 347.96 274.113 343.776 282.779 335.405 C 291.445 327.037 295.777 315 295.777 299.296 C 295.777 283.596 290.701 271.708 280.557 263.632 C 270.408 255.56 255.336 251.522 235.338 251.522 C 234.299 251.522 232.706 251.598 230.56 251.744 C 228.411 251.893 226.817 251.966 225.783 251.966 L 225.783 207.969 L 232.671 207.969 C 251.038 207.969 264.631 204.379 273.446 197.192 C 282.258 190.008 286.668 179.009 286.668 164.194 C 286.668 151.9 282.925 142.161 275.446 134.974 C 267.964 127.791 257.781 124.197 244.893 124.197 C 230.817 124.197 219.929 128.346 212.228 136.641 C 204.524 144.939 200.673 156.716 200.673 171.972 L 200.673 174.638 L 140.678 174.638 C 141.417 142.05 151.01 117.052 169.454 99.643 C 187.897 82.238 213.93 73.534 247.559 73.534 C 279.408 73.534 304.666 81.311 323.332 96.866 C 341.996 112.421 351.33 133.384 351.33 159.75 C 351.33 173.676 348.143 185.898 341.775 196.415 C 335.404 206.935 325.85 215.601 313.109 222.413 C 329.404 229.523 341.736 239.339 350.107 251.855 C 358.475 264.375 362.662 279.298 362.662 296.63 C 362.662 328.482 352.219 353.737 331.33 372.402 C 310.443 391.068 281.925 400.4 245.781 400.4 C 210.079 400.4 182.563 391.324 163.231 373.18 C 143.899 355.035 134.234 329.221 134.234 295.741 L 134.234 294.407 L 134.234 294.407 Z"/>
</svg>