<?xml version="1.0" encoding="utf-8"?>
<svg viewBox="0 0 500 500" xmlns="http://www.w3.org/2000/svg">
  <path fill="#FE0000" d="M 472.929 490.367 L 24.844 490.367 C 13.246 490.367 3.844 480.965 3.844 469.367 L 3.844 28.283 C 3.844 16.685 13.246 7.283 24.844 7.283 L 472.929 7.283 C 484.527 7.283 493.929 16.685 493.929 28.283 L 493.929 469.367 C 493.929 480.965 484.527 490.367 472.929 490.367 Z"/>
  <path d="M 231.89 390.732 L 231.89 173.192 L 155.895 173.192 L 155.895 128.528 L 160.784 128.528 C 188.483 128.528 208.669 124.234 221.335 115.64 C 234.001 107.051 241.445 92.68 243.667 72.532 L 294.552 72.532 L 294.552 390.732 L 231.89 390.732 Z"/>
</svg>