<?xml version="1.0" encoding="utf-8"?>
<svg viewBox="0 0 500 500" xmlns="http://www.w3.org/2000/svg">
  <path fill="#FE0000" d="M 475.156 493.707 L 27.071 493.707 C 15.473 493.707 6.071 484.305 6.071 472.707 L 6.071 31.623 C 6.071 20.025 15.473 10.623 27.071 10.623 L 475.156 10.623 C 486.754 10.623 496.156 20.025 496.156 31.623 L 496.156 472.707 C 496.156 484.305 486.754 493.707 475.156 493.707 Z"/>
  <path d="M 248.558 394.072 L 182.118 394.072 C 184.487 350.669 194.968 307.634 213.561 264.97 C 232.15 222.307 258.703 180.386 293.223 139.201 L 136.788 139.201 L 136.788 84.983 L 362.328 84.983 L 362.328 132.757 C 327.365 171.276 300.516 212.012 281.778 254.971 C 263.036 297.933 251.964 344.298 248.558 394.072 Z"/>
</svg>