<?xml version="1.0" encoding="utf-8"?>
<svg viewBox="0 0 500 500" xmlns="http://www.w3.org/2000/svg">
  <path fill="#0078F2" d="M 474.043 487.026 L 25.957 487.026 C 14.359 487.026 4.957 477.624 4.957 466.026 L 4.957 24.942 C 4.957 13.344 14.359 3.942 25.957 3.942 L 474.043 3.942 C 485.641 3.942 495.043 13.344 495.043 24.942 L 495.043 466.026 C 495.043 477.624 485.641 487.026 474.043 487.026 Z"/>
  <path d="M 135.011 232.735 C 135.011 178.072 144.527 137.151 163.565 109.966 C 182.598 82.784 211.374 69.19 249.892 69.19 C 288.257 69.19 317.033 82.856 336.219 110.188 C 355.401 137.519 364.995 178.517 364.995 233.179 C 364.995 287.842 355.475 328.655 336.441 355.615 C 317.404 382.578 288.556 396.057 249.892 396.057 C 211.374 396.057 182.598 382.502 163.565 355.393 C 144.527 328.283 135.011 287.397 135.011 232.735 Z M 201.006 232.735 C 201.006 271.398 204.895 299.474 212.672 316.951 C 220.449 334.433 232.855 343.172 249.892 343.172 C 266.925 343.172 279.369 334.359 287.222 316.728 C 295.072 299.101 298.999 271.103 298.999 232.735 C 298.999 194.22 295.072 166.222 287.222 148.741 C 279.369 131.263 266.925 122.52 249.892 122.52 C 232.855 122.52 220.449 131.225 212.672 148.629 C 204.895 166.038 201.006 194.071 201.006 232.735 Z"/>
</svg>