<?xml version="1.0" encoding="utf-8"?>
<svg viewBox="0 0 500 500" xmlns="http://www.w3.org/2000/svg">
  <path fill="#20B504" d="M 472.929 487.583 L 24.844 487.583 C 13.246 487.583 3.844 478.181 3.844 466.583 L 3.844 25.499 C 3.844 13.901 13.246 4.499 24.844 4.499 L 472.929 4.499 C 484.527 4.499 493.929 13.901 493.929 25.499 L 493.929 466.583 C 493.929 478.181 484.527 487.583 472.929 487.583 Z"/>
  <path d="M 130.339 387.949 C 130.634 359.507 136.707 335.397 148.56 315.621 C 160.41 295.845 181.447 275.811 211.667 255.514 C 216.257 252.403 222.923 248.108 231.665 242.626 C 271.662 216.999 291.661 192.334 291.661 168.631 C 291.661 154.559 287.439 143.449 278.995 135.3 C 270.552 127.155 258.997 123.079 244.331 123.079 C 228.332 123.079 216 128.079 207.334 138.078 C 198.668 148.077 194.335 162.336 194.335 180.852 L 194.335 183.519 L 135.672 183.519 C 135.672 147.077 145.449 119.006 165.003 99.303 C 184.557 79.602 212.406 69.749 248.553 69.749 C 281.29 69.749 307.438 78.676 326.992 96.525 C 346.546 114.378 356.323 138.116 356.323 167.742 C 356.323 188.928 351.213 207.295 340.991 222.85 C 330.769 238.404 310.993 256.108 281.662 275.957 C 275.44 280.255 266.847 285.883 255.886 292.845 C 228.033 310.77 212.333 324.398 208.778 333.731 L 353.212 333.731 L 353.212 387.949 L 130.339 387.949 Z"/>
</svg>