<?xml version="1.0" encoding="utf-8"?>
<svg viewBox="0 0 500 500" xmlns="http://www.w3.org/2000/svg">
  <path fill="#FC7300" d="M 474.043 491.48 L 25.957 491.48 C 14.359 491.48 4.957 482.078 4.957 470.48 L 4.957 29.396 C 4.957 17.798 14.359 8.396 25.957 8.396 L 474.043 8.396 C 485.641 8.396 495.043 17.798 495.043 29.396 L 495.043 470.48 C 495.043 482.078 485.641 491.48 474.043 491.48 Z"/>
  <path d="M 296.774 267.188 C 289.365 274.597 280.626 280.153 270.554 283.854 C 260.478 287.558 249.145 289.408 236.556 289.408 C 205.298 289.408 180.262 280.003 161.45 261.188 C 142.636 242.377 133.23 217.192 133.23 185.638 C 133.23 152.161 143.452 125.125 163.894 104.532 C 184.338 83.944 211.298 73.646 244.778 73.646 C 283.588 73.646 313.106 87.017 333.327 113.754 C 353.548 140.495 363.659 179.493 363.659 230.746 C 363.659 285.854 352.843 328.073 331.216 357.404 C 309.586 386.736 278.477 401.401 237.889 401.401 C 209.891 401.401 187.299 394.103 170.117 379.514 C 152.93 364.924 143.524 345.036 141.896 319.851 L 206.114 320.074 C 207.593 330.295 211.593 337.926 218.113 342.96 C 224.63 347.998 233.813 350.516 245.666 350.516 C 261.665 350.516 273.887 343.554 282.331 329.628 C 290.775 315.705 295.587 294.891 296.774 267.188 Z M 295.663 184.305 C 295.663 166.084 291.108 151.679 281.998 141.086 C 272.887 130.496 260.478 125.198 244.778 125.198 C 229.963 125.198 218.446 130.309 210.225 140.53 C 202.003 150.752 197.892 165.049 197.892 183.416 C 197.892 200.602 202.187 214.008 210.78 223.635 C 219.37 233.267 231.445 238.079 247 238.079 C 262.256 238.079 274.182 233.34 282.775 223.858 C 291.365 214.379 295.663 201.193 295.663 184.305 Z"/>
</svg>