<?xml version="1.0" encoding="utf-8"?>
<svg viewBox="0 0 500 500" xmlns="http://www.w3.org/2000/svg">
  <path fill="#0078F2" d="M 472.929 491.48 L 24.844 491.48 C 13.246 491.48 3.844 482.078 3.844 470.48 L 3.844 29.396 C 3.844 17.798 13.246 8.396 24.844 8.396 L 472.929 8.396 C 484.527 8.396 493.929 17.798 493.929 29.396 L 493.929 470.48 C 493.929 482.078 484.527 491.48 472.929 491.48 Z"/>
  <path d="M 264.552 391.842 L 264.552 323.181 L 130.339 323.181 L 130.339 267.185 L 247.665 82.753 L 326.548 82.753 L 326.548 272.517 L 363.434 272.517 L 363.434 323.181 L 326.548 323.181 L 326.548 391.842 L 264.552 391.842 L 264.552 391.842 Z M 265.886 274.073 L 265.886 137.86 L 179.448 274.073 L 265.886 274.073 Z"/>
</svg>